<?xml version="1.0" encoding="UTF-8"?>
<svg xmlns="http://www.w3.org/2000/svg" viewBox="0 0 360 420" fill="none">
  <defs>
    <linearGradient id="earGradient" x1="0" y1="0" x2="1" y2="1">
      <stop offset="0%" stop-color="#ffe7f0" />
      <stop offset="100%" stop-color="#f9c3e1" />
    </linearGradient>
    <radialGradient id="eyeGlow" cx="50%" cy="50%" r="70%">
      <stop offset="0%" stop-color="#ffffff" stop-opacity="0.8" />
      <stop offset="100%" stop-color="#000000" stop-opacity="0" />
    </radialGradient>
  </defs>
  <rect width="360" height="420" rx="36" fill="rgba(255,255,255,0.01)" />
  <ellipse cx="180" cy="380" rx="140" ry="40" fill="rgba(146,104,255,0.12)" />
  <g id="bunnyBody" fill="#ffffff">
    <path d="M114 258.5c-12 22.5-13.5 44-13.5 58.5 0 16.6 11 31.8 26.8 36.5 15.8 4.7 31.3 7.4 45.7 7.4h28.4c14.4 0 29.9-2.7 45.7-7.4 15.8-4.7 26.8-19.9 26.8-36.5 0-14.6-1.6-36-13.5-58.5-10.8-20.2-30.8-34.8-67.4-34.8-36.7 0-56.7 14.6-67.4 34.8Z" />
    <path d="M142 175c-36.5 0-70 27-70 60 0 16.6 7.9 31.4 20.5 41.1 12.6 9.7 30.4 15.9 49.5 15.9s36.9-6.2 49.5-15.9C222.1 266.4 230 251.6 230 235c0-33-33.5-60-70-60Z" opacity="0.9" fill="#f8f4ff" />
  </g>
  <g id="earLeft">
    <ellipse cx="118" cy="98" rx="34" ry="92" fill="#ffffff" />
    <ellipse cx="118" cy="108" rx="20" ry="70" fill="url(#earGradient)" />
  </g>
  <g id="earRight">
    <ellipse cx="242" cy="98" rx="34" ry="92" fill="#ffffff" />
    <ellipse cx="242" cy="108" rx="20" ry="70" fill="url(#earGradient)" />
  </g>
  <g id="bunnyHead">
    <ellipse cx="180" cy="150" rx="88" ry="94" fill="#ffffff" />
    <ellipse cx="180" cy="145" rx="72" ry="74" fill="#ffffff" />
  </g>
  <g id="eyes" opacity="0.95">
    <ellipse cx="145" cy="148" rx="18" ry="22" fill="#2f2a49" />
    <ellipse cx="215" cy="148" rx="18" ry="22" fill="#2f2a49" />
    <circle cx="152" cy="138" r="6" fill="#ffffff" />
    <circle cx="222" cy="138" r="6" fill="#ffffff" />
    <circle cx="149" cy="146" r="8" fill="url(#eyeGlow)" />
    <circle cx="219" cy="146" r="8" fill="url(#eyeGlow)" />
  </g>
  <path id="bunnyNose" d="M176 178c0 6.1-5.6 11-12.5 11S151 184.1 151 178s5.6-11 12.5-11 12.5 4.9 12.5 11Z" fill="#ffacc8" />
  <path id="mouth" d="M168 188c6 10 19 10 25 0" stroke="#5f4c7b" stroke-width="3" stroke-linecap="round" fill="none" />
  <g id="cheeks">
    <circle cx="124" cy="184" r="14" fill="#ffd4e5" opacity="0.9" />
    <circle cx="236" cy="184" r="14" fill="#ffd4e5" opacity="0.9" />
  </g>
  <circle cx="290" cy="80" r="16" fill="#d6b4ff" opacity="0.35" />
  <circle cx="60" cy="90" r="12" fill="#ffd6f4" opacity="0.48" />
  <circle cx="40" cy="280" r="20" fill="#d7e3ff" opacity="0.45" />
</svg>
